<?xml version="1.0" encoding="UTF-8" standalone="no"?>
<!-- Created with Inkscape (http://www.inkscape.org/) -->

<svg
   version="1.1"
   id="svg1"
   width="512"
   height="512"
   viewBox="0 0 512 512"
   sodipodi:docname="favicon.svg"
   inkscape:version="1.4 (e7c3feb1, 2024-10-09)"
   xmlns:inkscape="http://www.inkscape.org/namespaces/inkscape"
   xmlns:sodipodi="http://sodipodi.sourceforge.net/DTD/sodipodi-0.dtd"
   xmlns="http://www.w3.org/2000/svg"
   xmlns:svg="http://www.w3.org/2000/svg">
  <sodipodi:namedview
     id="namedview1"
     pagecolor="#ffffff"
     bordercolor="#000000"
     borderopacity="0.25"
     inkscape:showpageshadow="2"
     inkscape:pageopacity="0.0"
     inkscape:pagecheckerboard="0"
     inkscape:deskcolor="#d1d1d1"
     showgrid="false"
     inkscape:zoom="0.49765558"
     inkscape:cx="425.99743"
     inkscape:cy="444.08223"
     inkscape:window-width="1488"
     inkscape:window-height="881"
     inkscape:window-x="0"
     inkscape:window-y="33"
     inkscape:window-maximized="0"
     inkscape:current-layer="layer1" />
  <g
     inkscape:groupmode="layer"
     id="layer1"
     inkscape:label="Background">
    <rect
       style="fill:#ffffff;fill-opacity:1"
       id="rect1"
       width="512"
       height="512"
       x="0"
       y="0"
       inkscape:label="rect1" />
  </g>
  <g
     inkscape:groupmode="layer"
     inkscape:label="Image"
     id="g1">
    <path
       style="fill:#202124;stroke:none;stroke-width:0.64"
       d="M 0,512 H 512 V 0 H 0 m 254.72,35.58617 c 6.34054,-0.40156 16.1284,6.96348 21.76,9.6884 17.08707,8.26777 34.53383,15.84809 51.84,23.64988 26.59426,11.98899 53.1902,23.98496 80,35.49184 l 21.12,8.96 c 2.09617,0.89968 6.21519,1.79914 7.29383,4.01136 2.81922,5.78208 0.38617,18.24579 0.38617,24.69235 0,21.13969 0.19086,42.33496 -1.81137,63.36 -3.33812,35.0532 -7.90601,69.56039 -19.52887,103.04 -18.16929,52.33656 -52.90945,96.99519 -97.05976,130.15902 -14.43953,10.84633 -29.74977,20.46016 -45.44,29.38074 -4.80739,2.73321 -12.34336,9.04965 -17.92,9.4 -6.08787,0.38243 -16.5185,-8.16347 -21.76,-11.13136 C 212.97658,454.61082 193.37041,441.29359 175.36,425.86914 149.08568,403.36734 126.74539,376.68906 110.27754,346.24 84.46943,298.52078 74.9049,241.16617 73.59062,187.52 73.18289,170.8775 72.32,154.28535 72.32,137.6 c 0,-5.4384 -1.79716,-14.70563 0.38617,-19.7032 1.41983,-3.24993 8.1012,-4.65219 11.13383,-5.90371 10.71254,-4.4209 21.35881,-9.02165 32,-13.61285 32.17517,-13.88223 64.31146,-28.24204 96,-43.2 9.3556,-4.41614 18.90574,-8.47407 28.16,-13.09825 4.20129,-2.0993 9.96059,-6.19437 14.72,-6.49582 M 183.04,402.56 c 0.38295,-4.81211 1.61211,-9.77039 3.82815,-14.08 16.35909,-31.81414 55.89404,-11.96164 80.01185,-4.49629 5.30617,1.64246 11.07449,2.95637 16.64,3.19109 21.84184,0.9213 42.63961,-17.14941 42.20543,-39.6548 C 324.92641,306.10266 275.07551,306.44961 245.76,302.44789 214.22912,298.14375 181.54605,284.48102 170.04297,252.16 165.8941,240.50262 165.76,229.15859 165.76,216.96 l -12.16,8.32 c 0.0118,-17.91543 8.2333,-35.98364 18.14024,-50.56 3.4882,-5.13231 9.35345,-9.17395 11.93976,-14.72 l -16.64,-3.84 c 12.87907,-10.97703 30.81867,-15.33445 47.36,-16.64 -7.7866,-11.05391 -26.1892,-20.56461 -22.4,-36.48 11.66832,9.40559 27.76678,22.07309 43.52,22.4 L 217.6,103.68 c 11.76191,2.43422 22.44994,9.54961 33.28,14.52246 11.07008,5.08309 24.0241,8.92946 33.92,16.15113 5.92172,4.32145 7.94297,11.60617 14.08051,15.59899 4.33066,2.81734 9.65941,4.95929 14.71949,6.02422 4.84308,1.01926 9.59453,0.31363 13.37285,4.09035 9.50555,9.50152 2.31066,26.03265 -6.97285,32.57285 -1.1766,-6.07727 -6.82156,-8.65985 -12.16,-10.60098 -10.36922,-3.77042 -26.7093,-9.91117 -35.2,0.36098 8.16403,4.74711 22.21848,14.40496 32,11.52 -4.33066,9.84566 -15.9016,13.55254 -25.6,9.38371 -17.51523,-7.52883 -46.05289,-26.96063 -59.03309,-1.06371 -1.78167,3.55465 -2.95691,7.52582 -3.03703,11.52 -0.24478,12.20258 8.89413,21.79871 19.19012,27.03606 18.59555,9.45913 39.65504,10.56702 59.52,15.94074 35.67684,9.65101 64.82804,35.16515 66.5348,74.1432 0.63751,14.55848 -3.70203,28.02418 -8.2948,41.6 4.24879,-2.44125 7.4418,-7.61871 10.31406,-11.52 7.68754,-10.44172 14.40313,-22.08633 19.67703,-33.92 13.99758,-31.40804 22.53989,-63.78883 26.78668,-97.92 1.53547,-12.34059 1.47465,-24.8284 2.92496,-37.12 1.77582,-15.05043 0.45727,-30.92078 0.45727,-46.08 0,-3.60684 1.63309,-12.66637 -1.02617,-15.37976 -2.54461,-2.59645 -7.82492,-3.74161 -11.13383,-5.10715 -8.11762,-3.35001 -16.24973,-6.67301 -24.32,-10.1368 -28.10543,-12.06297 -56.0473,-24.65402 -83.84,-37.41383 -9.18227,-4.21566 -18.42594,-8.36762 -27.52,-12.76789 -3.20067,-1.54867 -7.8591,-5.18441 -11.52,-4.9368 -2.83603,0.19184 -5.78576,2.46106 -8.32,3.62469 -6.41918,2.9475 -12.7766,6.01883 -19.2,8.96 -21.70188,9.937 -43.57631,19.50219 -65.28,29.44 -15.62137,7.15281 -31.40676,14.04023 -47.36,20.42176 -4.64246,1.85703 -15.63473,4.20016 -18.54223,8.34418 -1.7772,2.53301 -0.59433,8.14012 -0.66715,11.1116 -0.22078,9.01062 0.009,17.8686 0.009,26.88 0,39.84406 4.32658,79.95547 15.27012,118.4 9.27242,32.57395 24.91178,62.96164 46.65235,88.96 7.69562,9.20281 15.78457,19.4207 25.75753,26.24 m 73.59997,-256 c 2.15387,2.46804 5.01039,2.71914 7.5852,4.52789 1.98699,1.39582 1.89859,3.85738 3.49777,5.53383 4.87664,5.11223 11.01731,-0.43707 15.79703,-2.38172 -3.4282,-6.55285 -20.15187,-7.62429 -26.88,-7.68 m 86.4,91.52 -14.72,6.4 v 0.64 c 18.42129,0.8418 38.18133,22.13695 38.39754,40.32 0.0462,3.8818 0.77804,8.72844 -1.27754,12.16 -17.24914,-28.17844 -49.73484,-53.68285 -84.48,-54.4 10.64477,-18.41523 48.30394,-21.78852 62.08,-5.12 m -144,81.52988 c 19.84881,-4.31644 27.61371,25.55551 7.68,30.13137 -19.15457,4.39695 -27.15572,-25.89605 -7.68,-30.13137 m 44.16,-0.039 c 20.0625,-3.59016 27.10379,26.41961 7.04,30.20988 -19.35514,3.65641 -26.2398,-26.7741 -7.04,-30.20988 m 42.88,0 c 20.41801,-3.65383 26.83902,26.38688 6.4,30.20988 -18.65375,3.4891 -25.16429,-26.85199 -6.4,-30.20988 M 327.04,401.92 c -20.41863,8.48977 -41.23805,11.76176 -62.72,4.69086 -21.67064,-7.13301 -50.72256,-29.86719 -71.399,-7.78172 -1.86631,1.99352 -5.70055,5.8393 -4.23803,8.84148 2.37984,4.88528 10.55389,9.35703 14.83703,12.56938 11.25734,8.44301 23.12484,15.94547 35.2,23.1516 4.4247,2.64055 10.27887,7.43512 15.36,8.43063 5.28828,1.03609 14.80093,-7.19863 19.2,-9.83801 12.8275,-7.69637 25.26773,-15.98492 37.12,-25.12102 5.72484,-4.41289 12.44844,-8.99676 16.64,-14.9432 z"
       id="path1"
       sodipodi:nodetypes="cccccssccsssssssssssssssssccssssssccsccccccssssscsccsssssscssssssssssssssssssssccsscccccsccccsccsccsccssssssssc" />
  </g>
</svg>
