<?xml version="1.0" encoding="UTF-8" standalone="no"?>
<!-- Created with Inkscape (http://www.inkscape.org/) -->

<svg
   class="page-icon"
   width="36"
   height="36"
   viewBox="0 0 157.23914 190.35471"
   fill="none"
   version="1.1"
   id="logo"
   xmlns="http://www.w3.org/2000/svg"
   xmlns:svg="http://www.w3.org/2000/svg">
  <defs
     id="defs1" />
  <g
     id="layer1"
     transform="translate(-24.077084,-47.625)">
    <path
       style="fill:#ffffff;stroke-width:0.264583"
       d="M 101.05928,237.23458 C 93.793023,233.47986 83.331361,227.07346 77.599555,222.86856 69.883543,217.20804 59.453155,207.60753 53.981516,201.12966 36.734045,180.7104 27.785972,156.05285 25.188597,121.78714 c -0.495289,-6.53409 -1.352354,-38.147954 -1.047573,-38.6411 0.18137,-0.293463 3.607845,-1.811732 13.065474,-5.789306 3.880554,-1.632037 8.008054,-3.405839 9.172221,-3.941779 2.196764,-1.011314 8.270216,-3.740695 19.755556,-8.878056 3.68653,-1.648974 7.49653,-3.365297 8.46667,-3.814049 0.970137,-0.448754 4.383262,-2.005705 7.58472,-3.459892 3.201458,-1.454185 9.157832,-4.21762 13.236387,-6.140966 L 102.8376,47.625 l 5.13612,2.49261 c 2.82486,1.370936 6.31412,3.035937 7.75389,3.700002 9.56725,4.412683 19.6957,8.991195 30.48723,13.781601 4.26861,1.894853 9.03111,4.033504 10.58333,4.752551 2.96371,1.372905 5.24777,2.361034 17.19792,7.440121 l 7.32014,3.11123 -0.007,9.195218 c -0.0321,40.523817 -4.56766,65.718127 -15.8294,87.930377 -8.00567,15.79008 -20.97927,30.55643 -37.78553,43.00692 -5.81968,4.31136 -23.68814,15.01477 -24.9473,14.94371 -0.15197,-0.009 -0.91132,-0.34371 -1.68743,-0.74476 z m 5.29341,-11.87686 c 10.2988,-5.99893 19.87338,-12.61295 24.69131,-17.05648 1.10058,-1.01505 2.2655,-2.04667 2.58872,-2.29249 0.86143,-0.65513 0.33992,-0.56616 -1.58794,0.2709 -4.35105,1.88919 -8.98836,2.78638 -14.40495,2.78697 -6.50041,7.9e-4 -10.69462,-1.07949 -18.520829,-4.76995 -7.357951,-3.46965 -8.677526,-3.85513 -13.229169,-3.86454 -3.477779,-0.007 -4.089138,0.0897 -5.890152,0.93396 -2.191395,1.02719 -4.816043,3.42263 -5.768745,5.26495 l -0.603802,1.16762 1.368848,1.16876 c 2.743684,2.34263 9.22759,7.12299 13.186907,9.72225 3.633713,2.3855 14.015122,8.62522 14.465632,8.69453 0.098,0.0151 1.76484,-0.89684 3.70417,-2.02648 z M 72.047837,204.21647 c 0.410655,-2.92666 1.719292,-5.48974 3.933346,-7.70379 3.04296,-3.04296 5.044607,-3.77948 10.7423,-3.95271 5.12644,-0.15587 8.240813,0.476 14.864707,3.01584 7.90709,3.03187 9.25929,3.35904 13.93498,3.37161 3.77123,0.0101 4.49952,-0.0922 6.6719,-0.93743 5.32258,-2.07093 9.27992,-6.65961 10.6105,-12.30325 0.68824,-2.91918 0.66532,-4.22866 -0.12682,-7.24585 -0.83612,-3.18471 -1.92816,-5.02596 -4.51405,-7.6109 -2.9826,-2.98152 -8.77536,-5.63084 -14.05264,-6.42698 -0.77612,-0.11709 -2.05804,-0.35388 -2.84872,-0.5262 -0.79069,-0.17232 -3.64819,-0.48421 -6.35,-0.69308 -14.988237,-1.1587 -24.249328,-4.38416 -31.281577,-10.89479 -5.948244,-5.50702 -9.10908,-13.11532 -9.212199,-22.17426 -0.02705,-2.37599 -0.115597,-4.32068 -0.196779,-4.32153 -0.08118,-7.9e-4 -1.232119,0.78975 -2.557639,1.75688 l -2.410037,1.75842 0.0024,-1.67023 c 0.0054,-3.63851 2.155812,-10.20704 5.224291,-15.95772 1.802717,-3.37851 3.109727,-5.19359 5.636688,-7.82786 l 2.263677,-2.35981 -2.418424,-0.70203 c -1.330134,-0.38612 -3.023639,-0.8017 -3.763346,-0.923504 l -1.344922,-0.22147 0.824056,-0.648202 c 1.307899,-1.028796 5.216572,-3.082727 7.333845,-3.853794 2.421059,-0.8817 7.840575,-2.160556 9.155977,-2.160556 0.54251,0 1.477865,-0.0983 2.078567,-0.218437 l 1.092184,-0.218435 -3.537577,-3.750312 c -4.772377,-5.059371 -5.986259,-6.929795 -6.228077,-9.596615 -0.104294,-1.15016 -0.05947,-2.091201 0.09961,-2.091201 0.159076,0 1.411439,0.849792 2.783026,1.888427 4.709199,3.566041 12.916696,7.636573 15.397773,7.636573 0.864566,0 0.911143,0.06341 -4.17273,-5.680485 -1.60073,-1.808546 -2.910417,-3.399052 -2.910417,-3.534457 0,-0.575834 3.734731,0.831043 8.995833,3.388735 3.104444,1.509231 7.589107,3.593992 9.965907,4.632802 9.07895,3.968054 11.19281,5.299913 12.72738,8.019025 0.59195,1.048891 1.65877,2.387206 2.37069,2.974036 1.79641,1.480751 6.43255,3.239529 9.22736,3.500512 1.86513,0.174168 2.54796,0.413878 3.45994,1.214608 2.88333,2.53159 2.44264,8.98049 -0.87162,12.75523 -0.63019,0.71775 -1.26263,1.30499 -1.40541,1.30499 -0.14278,0 -0.43808,-0.3917 -0.65622,-0.87046 -0.67514,-1.48178 -3.04986,-2.86017 -7.19914,-4.17873 -4.67747,-1.48639 -7.62272,-1.88806 -9.71438,-1.32483 -1.37976,0.37153 -3.66652,1.91808 -3.26423,2.20762 0.097,0.0698 2.31951,1.19546 4.93889,2.50142 3.50075,1.74538 5.32328,2.44579 6.87916,2.64373 l 2.11667,0.26926 -1.80689,1.81705 c -1.48695,1.49531 -2.09785,1.86068 -3.45013,2.06347 -3.14484,0.47159 -5.51861,0.0661 -7.82904,-1.33743 -5.83477,-3.54444 -9.85104,-4.93274 -14.271258,-4.93315 -2.535,-2.3e-4 -3.299143,0.14338 -4.794258,0.90101 -1.977231,1.00194 -3.60662,2.67886 -4.785548,4.92516 -0.634368,1.2087 -0.784407,2.08803 -0.795914,4.66449 -0.01675,3.75224 0.441711,4.91182 3.085922,7.80501 3.889936,4.25621 9.292966,6.3822 22.825276,8.98131 12.90629,2.47888 20.07769,5.50679 25.88303,10.92834 4.66502,4.35661 7.75902,9.54961 9.44551,15.8534 0.67001,2.50441 0.79997,3.87073 0.7885,8.29028 -0.0148,5.72037 -0.6228,9.17644 -2.47037,14.04314 -0.50143,1.32081 -0.85327,2.4599 -0.78186,2.5313 0.19535,0.19536 3.84616,-4.26569 5.62472,-6.87306 5.74199,-8.41772 11.18243,-20.26063 13.93719,-30.33888 1.56562,-5.7278 2.26229,-8.60031 2.78068,-11.46528 2.82864,-15.63321 3.37746,-21.76931 3.60505,-40.30653 l 0.18734,-15.259319 -1.54036,-0.651002 c -0.8472,-0.358052 -3.36599,-1.413168 -5.59731,-2.344705 -7.34584,-3.066757 -36.07867,-15.729792 -43.03889,-18.967959 -0.6791,-0.315941 -5.18014,-2.401784 -10.00233,-4.635204 l -8.7676,-4.060764 -2.716922,1.366044 c -3.97987,2.001038 -21.838383,10.172822 -31.253424,14.301092 -2.328334,1.020919 -5.344584,2.370058 -6.70278,2.998089 -5.19399,2.401708 -12.037272,5.374889 -17.551612,7.625601 -3.152447,1.286693 -6.763596,2.760213 -8.024778,3.274494 l -2.293056,0.935054 0.01315,13.927829 c 0.0079,8.31982 0.190116,15.77442 0.452646,18.51395 0.241721,2.52236 0.521835,5.53861 0.62248,6.70277 0.421627,4.87712 1.924838,13.96244 3.385389,20.46111 3.075683,13.68517 8.617886,27.06473 15.396274,37.1685 1.544806,2.30266 3.050317,4.48613 3.345579,4.85214 5.770004,7.15258 13.348348,15.30575 14.226643,15.30575 0.213701,0 0.47208,-0.59531 0.574175,-1.32291 z m 5.700284,-21.72448 c -2.185143,-1.04042 -3.126698,-2.17809 -3.667154,-4.43096 -1.245351,-5.19122 3.860258,-9.64031 8.728578,-7.6062 2.778013,1.16073 4.082547,3.18404 4.054231,6.28806 -0.01543,1.69184 -0.203425,2.33273 -1.025586,3.49636 -1.955781,2.76807 -5.143494,3.65572 -8.090069,2.25274 z m 19.456707,0.29797 c -4.08635,-1.45591 -5.625084,-6.48633 -3.142875,-10.27466 0.776158,-1.18457 3.660215,-2.60647 5.286717,-2.60647 3.3688,0 6.47311,3.06738 6.47311,6.3961 0,2.9846 -1.34349,5.08434 -4.05695,6.34063 -1.67636,0.77614 -2.69623,0.80843 -4.560002,0.1444 z m 19.376672,0.18283 c -3.91853,-0.89396 -6.07189,-4.55256 -4.93426,-8.38339 1.12471,-3.7873 5.50746,-5.7579 8.91707,-4.00935 4.12833,2.11713 5.05333,7.32212 1.88871,10.62784 -1.32749,1.38668 -4.00352,2.19106 -5.87152,1.7649 z m 31.74559,-25.80907 c -2.33156,-3.55311 -5.88576,-7.37773 -9.2323,-9.93474 -6.04591,-4.61955 -14.75668,-8.45085 -22.24871,-9.78577 -1.4067,-0.25064 -2.55764,-0.57554 -2.55764,-0.72201 0,-0.49496 3.34026,-3.21631 4.95396,-4.03606 3.14052,-1.59534 5.37476,-2.01861 9.81238,-1.8589 4.47005,0.16087 6.98948,0.91773 10.25331,3.08019 l 1.55993,1.03353 -1.03076,0.25374 c -1.41101,0.34736 -5.44048,2.28611 -5.44048,2.61765 0,0.14793 0.59531,0.37954 1.32292,0.51471 2.6049,0.4839 6.13482,2.69297 9.30543,5.82348 4.21891,4.16552 5.97826,7.92986 5.92741,12.68235 -0.0419,3.91711 -0.25509,3.94405 -2.62545,0.33183 z m -35.76191,-57.05109 c 0.46272,-0.358472 1.28916,-0.761203 1.83652,-0.89496 0.54958,-0.1343 0.93282,-0.434824 0.85589,-0.671155 -0.23607,-0.725245 -1.88363,-1.324214 -6.09745,-2.216722 -6.1618,-1.305102 -7.35189,-1.071652 -3.50801,0.688136 1.42857,0.654021 1.93354,1.074561 1.93354,1.610273 0,1.917798 3.19183,2.869308 4.97951,1.484428 z"
       id="use5" />
  </g>
</svg>
